<?xml version="1.0" standalone="no"?><!DOCTYPE svg PUBLIC "-//W3C//DTD SVG 1.1//EN" "http://www.w3.org/Graphics/SVG/1.1/DTD/svg11.dtd"><svg height="1000" node-id="1" sillyvg="true" template-height="1000" template-width="1000" version="1.1" viewBox="0 0 1000 1000" width="1000" xmlns="http://www.w3.org/2000/svg" xmlns:xlink="http://www.w3.org/1999/xlink"><defs node-id="11"></defs><g node-id="31"><path d="M 369.06 347.31 L 368.27 338.78 L 367.23 334.52 L 364.93 330.48 L 360.89 326.81 L 355.75 321.65 L 354.12 318.87 L 353.98 316.60 L 357.18 311.37 L 362.69 307.06 L 369.19 303.89 L 375.18 301.88 L 383.75 298.46 L 391.66 293.62 L 406.16 282.60 L 409.94 280.18 L 415.14 277.96 L 420.38 277.42 L 424.59 279.60 L 428.05 285.28 L 429.48 291.22 L 430.96 303.62 L 434.90 313.65 L 455.62 308.91 L 476.33 306.22 L 497.12 305.56 L 518.09 306.92 L 545.83 311.54 L 572.59 319.01 L 598.54 329.34 L 623.40 342.32 L 646.09 357.30 L 666.79 374.29 L 681.13 388.57 L 693.60 403.45 L 704.30 418.95 L 713.34 435.14 L 721.05 453.93 L 725.94 471.98 L 728.25 489.46 L 728.08 506.56 L 725.64 523.52 L 721.12 540.14 L 714.45 556.53 L 705.48 572.78 L 691.19 592.79 L 673.65 612.25 L 652.52 631.19 L 629.76 648.16 L 604.39 664.16 L 576.21 679.15 L 547.06 692.18 L 518.85 702.37 L 491.47 709.90 L 463.54 714.93 L 437.41 716.81 L 412.85 715.79 L 394.52 712.88 L 377.49 708.08 L 361.60 701.44 L 346.71 692.93 L 333.12 682.56 L 320.75 670.01 L 309.51 655.05 L 299.42 637.42 L 290.30 614.95 L 283.86 590.88 L 280.15 564.95 L 279.27 538.78 L 281.10 512.25 L 285.71 485.21 L 292.97 458.87 L 302.89 433.52 L 315.53 409.05 L 326.71 391.76 L 339.32 375.75 L 353.41 360.95 L 369.06 347.31 Z" fill="#f5efdb" fill-rule="evenodd" group-id="1" node-id="17" stroke="none" target-height="439.39148" target-width="448.97314" target-x="279.27295" target-y="277.42285"></path></g><g node-id="32"><path d="M 367.43 308.61 L 372.65 306.91 L 381.22 303.49 L 389.13 298.65 L 403.62 287.63 L 407.40 285.21 L 412.61 282.99 L 417.85 282.45 L 422.05 284.63 L 425.51 290.30 L 426.95 296.25 L 428.42 308.65 L 432.37 318.68 L 453.08 313.93 L 473.79 311.25 L 494.59 310.59 L 515.55 311.95 L 543.29 316.57 L 570.06 324.04 L 596.01 334.37 L 620.87 347.35 L 643.56 362.32 L 664.25 379.31 L 678.60 393.60 L 691.06 408.47 L 701.77 423.98 L 710.80 440.16 L 718.51 458.96 L 723.41 477.01 L 725.71 494.49 L 725.54 511.58 L 723.11 528.55 L 718.59 545.17 L 711.91 561.56 L 702.94 577.81 L 688.66 597.82 L 671.12 617.27 L 649.99 636.22 L 627.23 653.19 L 601.85 669.19 L 573.67 684.18 L 543.09 697.77 L 513.36 708.33 L 483.50 716.12 L 455.17 720.61 L 484.28 710.19 L 514.20 696.86 L 543.22 681.93 L 567.47 667.48 L 587.50 653.50 L 603.82 640.00 L 616.21 627.36 L 625.94 614.54 L 633.27 601.49 L 638.43 588.12 L 641.52 574.30 L 642.51 560.36 L 641.43 545.17 L 638.07 528.49 L 632.12 510.06 L 623.22 489.63 L 614.19 473.45 L 603.48 457.94 L 591.01 443.07 L 576.67 428.79 L 555.97 411.79 L 533.28 396.82 L 508.42 383.84 L 482.48 373.51 L 455.71 366.04 L 427.97 361.42 L 407.00 360.06 L 386.21 360.72 L 365.50 363.41 L 344.78 368.16 L 345.31 367.21 L 348.81 364.82 L 358.45 358.47 L 363.42 354.08 L 367.43 348.88 L 369.68 343.29 L 370.59 337.40 L 370.04 326.76 L 368.95 321.33 L 367.43 308.61 Z" fill="#ebe0bc" fill-rule="evenodd" group-id="2" node-id="22" stroke="none" target-height="438.15942" target-width="380.92773" target-x="344.78345" target-y="282.4486"></path></g><path d="M 394.60 396.06 C 394.60 396.06 371.75 408.29 361.57 428.97 C 357.89 436.46 360.86 445.74 368.20 449.70 C 375.55 453.65 384.50 450.78 388.18 443.29 C 398.36 422.62 394.60 396.06 394.60 396.06 Z M 433.94 381.32 C 433.94 381.32 429.61 407.84 439.36 429.76 C 442.67 437.19 451.39 440.55 458.83 437.27 C 466.28 433.98 469.63 425.28 466.32 417.85 C 456.57 395.93 433.94 381.32 433.94 381.32 Z M 471.32 352.05 C 471.32 352.05 486.51 374.35 508.13 383.07 C 515.81 386.17 524.33 382.36 527.14 374.56 C 529.94 366.77 525.98 357.92 518.29 354.82 C 496.68 346.11 471.32 352.05 471.32 352.05 Z" fill="#d1c293" fill-rule="evenodd" node-id="25" stroke="none" target-height="107.54202" target-width="172.04901" target-x="357.891" target-y="346.106"></path><path d="M 363.30 344.86 L 347.64 358.89 L 333.55 374.08 L 320.94 390.46 L 309.77 408.10 L 297.16 433.02 L 287.29 458.80 L 280.10 485.55 L 275.56 512.98 L 273.83 539.88 L 274.82 566.40 L 278.64 592.66 L 285.22 617.06 L 294.48 639.83 L 304.84 657.96 L 316.37 673.37 L 329.08 686.34 L 343.03 697.08 L 358.31 705.93 L 374.62 712.87 L 392.10 717.92 L 410.90 721.04 L 436.12 722.26 L 462.94 720.48 L 491.60 715.46 L 519.70 707.84 L 548.67 697.45 L 578.62 684.09 L 607.56 668.67 L 633.56 652.20 L 656.83 634.71 L 678.40 615.18 L 696.29 595.11 L 710.81 574.47 L 719.91 557.72 L 726.66 540.83 L 731.20 523.69 L 733.61 506.20 L 733.71 488.59 L 731.28 470.60 L 726.21 452.03 L 718.28 432.72 L 709.18 416.38 L 698.41 400.71 L 685.88 385.67 L 671.47 371.21 L 650.70 353.97 L 627.92 338.72 L 602.95 325.43 L 576.88 314.76 L 549.95 306.92 L 522.02 301.89 L 500.88 300.19 L 479.88 300.49 L 458.94 302.78 L 437.98 307.10 L 436.33 302.44 L 434.93 290.46 L 433.07 283.03 L 428.68 275.93 L 425.08 273.21 L 421.07 271.92 L 416.39 272.05 L 408.85 274.57 L 402.86 278.20 L 389.23 288.69 L 381.79 293.32 L 373.72 296.58 L 365.40 299.52 L 357.11 304.16 L 351.84 309.17 L 348.73 314.94 L 348.56 319.24 L 350.88 324.32 L 356.28 329.95 L 360.69 333.99 L 362.42 337.42 L 363.00 341.07 L 363.30 344.86 Z M 359.56 317.40 L 363.59 313.05 L 370.11 309.45 L 376.64 307.18 L 385.70 303.60 L 394.09 298.55 L 409.45 287.01 L 416.69 283.23 L 419.19 282.83 L 420.49 283.28 L 423.36 288.54 L 424.30 294.23 L 425.58 304.81 L 429.89 315.91 L 432.57 318.64 L 436.43 318.94 L 456.66 314.30 L 476.89 311.68 L 497.20 311.03 L 517.68 312.35 L 544.77 316.87 L 570.92 324.15 L 596.26 334.24 L 620.55 346.91 L 642.71 361.53 L 662.92 378.12 L 676.94 392.07 L 689.12 406.60 L 699.57 421.74 L 708.39 437.55 L 715.88 455.83 L 720.61 473.37 L 722.78 490.33 L 722.54 506.91 L 720.08 523.35 L 715.59 539.46 L 708.99 555.34 L 700.14 571.09 L 686.10 590.46 L 668.90 609.31 L 648.21 627.66 L 625.96 644.12 L 601.22 659.64 L 573.79 674.21 L 545.44 686.90 L 517.99 696.89 L 491.34 704.33 L 464.14 709.37 L 438.70 711.37 L 414.80 710.54 L 396.93 707.84 L 380.35 703.29 L 364.88 696.94 L 350.39 688.78 L 337.17 678.79 L 325.12 666.65 L 314.19 652.15 L 304.36 635.00 L 295.46 613.06 L 289.17 589.54 L 285.55 564.22 L 284.70 538.66 L 286.49 512.74 L 291.00 486.33 L 298.10 460.60 L 307.79 435.85 L 320.15 411.94 L 331.07 395.06 L 343.40 379.42 L 357.16 364.97 L 372.44 351.65 L 374.16 349.36 L 374.51 346.55 L 373.72 338.00 L 372.29 332.34 L 369.16 326.98 L 366.26 324.25 L 362.03 320.39 L 359.56 317.40 Z" fill="#271e34" fill-rule="evenodd" group-id="3" node-id="29" stroke="none" target-height="450.33862" target-width="459.8767" target-x="273.83154" target-y="271.9226"></path></svg>